<?xml version="1.0" encoding="utf-8"?>
<score bpm="150" beatspermeasure="4">
	<instrument instrument="piano" gate="t">
		<note measure="1" beat="1" duration="0.25" note="E3" pedal="t" velocity="s"/>
		<note measure="1" beat="1.25" duration="0.25" note="F3#" pedal="t" velocity="s"/>
		<note measure="1" beat="1.5" duration="0.25" note="B3" pedal="t" velocity="s"/>
		<note measure="1" beat="1.75" duration="0.25" note="C4#" pedal="t" velocity="s"/>
		<note measure="1" beat="2" duration="0.25" note="B3" pedal="t" velocity="s"/>
		<note measure="1" beat="2.25" duration="0.25" note="C4#" pedal="t" velocity="s"/>
		<note measure="1" beat="2.5" duration="0.25" note="D4" pedal="t" velocity="s"/>
		<note measure="1" beat="2.75" duration="0.25" note="E4" pedal="t" velocity="s"/>
		<note measure="1" beat="3" duration="0.25" note="F4#" pedal="t" velocity="s"/>
		<note measure="1" beat="3.25" duration="0.25" note="E4" pedal="t" velocity="s"/>
		<note measure="1" beat="3.5" duration="0.25" note="F4#" pedal="t" velocity="s"/>
		<note measure="1" beat="3.75" duration="0.25" note="G4" pedal="t" velocity="s"/>
		<note measure="1" beat="4" duration="0.25" note="B4" pedal="t" velocity="s"/>
		<note measure="1" beat="4.25" duration="0.25" note="C5#" pedal="t" velocity="s"/>
		<note measure="1" beat="4.5" duration="0.25" note="B4" pedal="t" velocity="s"/>
		<note measure="1" beat="4.75" duration="0.25" note="C5#" pedal="t" velocity="s"/>

		<note measure="2" beat="1" duration="0.25" note="E5" pedal="t" velocity="s"/>
		<note measure="2" beat="1.25" duration="0.25" note="F5#" pedal="t" velocity="s"/>
		<note measure="2" beat="1.5" duration="0.25" note="E5" pedal="t" velocity="s"/>
		<note measure="2" beat="1.75" duration="0.25" note="F5#" pedal="t" velocity="s"/>
		<note measure="2" beat="2" duration="0.25" note="G5" pedal="t" velocity="s"/>
		<note measure="2" beat="2.25" duration="0.25" note="B5" pedal="t" velocity="s"/>
		<note measure="2" beat="2.5" duration="0.25" note="C6#" pedal="t" velocity="s"/>
		<note measure="2" beat="2.75" duration="0.25" note="B5" pedal="t" velocity="s"/>
		<note measure="2" beat="3" duration="0.25" note="C6#" pedal="t" velocity="s"/>
		<note measure="2" beat="3.25" duration="0.25" note="D6" pedal="t" velocity="s"/>
		<note measure="2" beat="3.5" duration="0.25" note="E6" pedal="t" velocity="s"/>
		<note measure="2" beat="3.75" duration="0.25" note="F6#" pedal="t" velocity="s"/>
		<note measure="2" beat="4" duration="0.25" note="E6" pedal="t" velocity="s"/>
		<note measure="2" beat="4.25" duration="0.25" note="F6#" pedal="t" velocity="s"/>
		<note measure="2" beat="4.5" duration="0.25" note="G6" pedal="t" velocity="s"/>
		<note measure="2" beat="4.75" duration="0.25" note="B6" pedal="t" velocity="s"/>


		<note measure="3" beat="1" duration="0.25" note="C7#" pedal="t" velocity="s"/>
		<note measure="3" beat="1.25" duration="0.25" note="F5#" pedal="t" velocity="s"/>
		<note measure="3" beat="1.5" duration="0.25" note="F6#" pedal="t" velocity="s"/>
		<note measure="3" beat="1.75" duration="0.25" note="E6" pedal="t" velocity="s"/>
		<note measure="3" beat="2" duration="0.25" note="A5#" pedal="t" velocity="s"/>
		<note measure="3" beat="2.25" duration="0.25" note="E6" pedal="t" velocity="s"/>
		<note measure="3" beat="2.5" duration="0.25" note="C6#" pedal="t" velocity="s"/>
		<note measure="3" beat="2.75" duration="0.25" note="A5#" pedal="t" velocity="s"/>
		<note measure="3" beat="3" duration="0.25" note="G6" pedal="t" velocity="s"/>
		<note measure="3" beat="3.25" duration="0.25" note="E6" pedal="t" velocity="s"/>
		<note measure="3" beat="3.5" duration="0.25" note="C6#" pedal="t" velocity="s"/>
		<note measure="3" beat="3.75" duration="0.25" note="A5#" pedal="t" velocity="s"/>
		<note measure="3" beat="4" duration="0.25" note="E5" pedal="t" velocity="s"/>
		<note measure="3" beat="4.25" duration="0.25" note="F5#" pedal="t" velocity="s"/>
		<note measure="3" beat="4.5" duration="0.25" note="G5" pedal="t" velocity="s"/>
		<note measure="3" beat="4.75" duration="0.25" note="B5" pedal="t" velocity="s"/>


		<note measure="4" beat="1" duration="0.25" note="C6#" pedal="t" velocity="s"/>
		<note measure="4" beat="1.25" duration="0.25" note="F5#" pedal="t" velocity="s"/>
		<note measure="4" beat="1.5" duration="0.25" note="F5#" pedal="t" velocity="s"/>
		<note measure="4" beat="1.75" duration="0.25" note="C5#" pedal="t" velocity="s"/>
		<note measure="4" beat="2" duration="0.25" note="F5#" pedal="t" velocity="s"/>
		<note measure="4" beat="2.25" duration="0.25" note="F5#" pedal="t" velocity="s"/>
		<note measure="4" beat="2.5" duration="0.25" note="C5#" pedal="t" velocity="s"/>
		<note measure="4" beat="2.75" duration="0.25" note="G5" pedal="t" velocity="s"/>
		<note measure="4" beat="3" duration="0.25" note="E5" pedal="t" velocity="s"/>
		<note measure="4" beat="3.25" duration="0.25" note="C5#" pedal="t" velocity="s"/>
		<note measure="4" beat="3.5" duration="0.5" note="B4" pedal="t" velocity="s"/>
		<note measure="4" beat="4" duration="0.25" note="E5" pedal="t" velocity="s"/>
		<note measure="4" beat="4.25" duration="0.25" note="F5#" pedal="t" velocity="s"/>
		<note measure="4" beat="4.5" duration="0.25" note="G5" pedal="t" velocity="s"/>
		<note measure="4" beat="4.75" duration="0.25" note="B5" pedal="t" velocity="s"/>


		<note measure="5" beat="1" duration="0.25" note="C6#" pedal="t" velocity="s"/>
		<note measure="5" beat="1.25" duration="0.25" note="F5#" pedal="t" velocity="s"/>
		<note measure="5" beat="1.5" duration="0.25" note="F5#" pedal="t" velocity="s"/>
		<note measure="5" beat="1.75" duration="0.25" note="C5#" pedal="t" velocity="s"/>
		<note measure="5" beat="2" duration="0.25" note="F5#" pedal="t" velocity="s"/>
		<note measure="5" beat="2.25" duration="0.25" note="F5#" pedal="t" velocity="s"/>
		<note measure="5" beat="2.5" duration="0.25" note="C5#" pedal="t" velocity="s"/>
		<note measure="5" beat="2.75" duration="0.25" note="G5" pedal="t" velocity="s"/>
		<note measure="5" beat="3" duration="0.25" note="E5" pedal="t" velocity="s"/>
		<note measure="5" beat="3.25" duration="0.25" note="C5#" pedal="t" velocity="s"/>
		<note measure="5" beat="3.5" duration="0.5" note="B4" pedal="t" velocity="s"/>
		<note measure="5" beat="4" duration="0.25" note="E5" pedal="t" velocity="s"/>
		<note measure="5" beat="4.25" duration="0.25" note="F5#" pedal="t" velocity="s"/>
		<note measure="5" beat="4.5" duration="0.25" note="G5" pedal="t" velocity="s"/>
		<note measure="5" beat="4.75" duration="0.25" note="B5" pedal="t" velocity="s"/>

		<note measure="6" beat="1" duration="0.25" note="C6#" pedal="t" velocity="s"/>
		<note measure="6" beat="1.25" duration="0.25" note="F5#" pedal="t" velocity="s"/>
		<note measure="6" beat="1.5" duration="0.25" note="F5#" pedal="t" velocity="s"/>
		<note measure="6" beat="1.75" duration="0.25" note="C5#" pedal="t" velocity="s"/>
		<note measure="6" beat="2" duration="0.25" note="F5#" pedal="t" velocity="s"/>
		<note measure="6" beat="2.25" duration="0.25" note="F5#" pedal="t" velocity="s"/>
		<note measure="6" beat="2.5" duration="0.25" note="C5#" pedal="t" velocity="s"/>
		<note measure="6" beat="2.75" duration="0.25" note="G5" pedal="t" velocity="s"/>
		<note measure="6" beat="3" duration="0.25" note="E5" pedal="t" velocity="s"/>
		<note measure="6" beat="3.25" duration="0.25" note="C5#" pedal="t" velocity="s"/>
		<note measure="6" beat="3.5" duration="0.5" note="B4" pedal="t" velocity="s"/>
		<note measure="6" beat="4" duration="0.25" note="E5" pedal="t" velocity="s"/>
		<note measure="6" beat="4.25" duration="0.25" note="F5#" pedal="t" velocity="s"/>
		<note measure="6" beat="4.5" duration="0.25" note="G5" pedal="t" velocity="s"/>
		<note measure="6" beat="4.75" duration="0.25" note="B5" pedal="t" velocity="s"/>



		<note measure="7" beat="1" duration="0.25" note="E3" pedal="t" velocity="s"/>
		<note measure="7" beat="1.25" duration="0.25" note="F3#" pedal="t" velocity="s"/>
		<note measure="7" beat="1.5" duration="0.25" note="B3" pedal="t" velocity="s"/>
		<note measure="7" beat="1.75" duration="0.25" note="C4#" pedal="t" velocity="s"/>
		<note measure="7" beat="2" duration="0.25" note="B3" pedal="t" velocity="s"/>
		<note measure="7" beat="2.25" duration="0.25" note="C4#" pedal="t" velocity="s"/>
		<note measure="7" beat="2.5" duration="0.25" note="D4" pedal="t" velocity="s"/>
		<note measure="7" beat="2.75" duration="0.25" note="E4" pedal="t" velocity="s"/>
		<note measure="7" beat="3" duration="0.25" note="F4#" pedal="t" velocity="s"/>
		<note measure="7" beat="3.25" duration="0.25" note="E4" pedal="t" velocity="s"/>
		<note measure="7" beat="3.5" duration="0.25" note="F4#" pedal="t" velocity="s"/>
		<note measure="7" beat="3.75" duration="0.25" note="G4" pedal="t" velocity="s"/>
		<note measure="7" beat="4" duration="0.25" note="B4" pedal="t" velocity="s"/>
		<note measure="7" beat="4.25" duration="0.25" note="C5#" pedal="t" velocity="s"/>
		<note measure="7" beat="4.5" duration="0.25" note="B4" pedal="t" velocity="s"/>
		<note measure="7" beat="4.75" duration="0.25" note="C5#" pedal="t" velocity="s"/>

		<note measure="8" beat="1" duration="0.25" note="E5" pedal="t" velocity="s"/>
		<note measure="8" beat="1.25" duration="0.25" note="F5#" pedal="t" velocity="s"/>
		<note measure="8" beat="1.5" duration="0.25" note="E5" pedal="t" velocity="s"/>
		<note measure="8" beat="1.75" duration="0.25" note="F5#" pedal="t" velocity="s"/>
		<note measure="8" beat="2" duration="0.25" note="G5" pedal="t" velocity="s"/>
		<note measure="8" beat="2.25" duration="0.25" note="B5" pedal="t" velocity="s"/>
		<note measure="8" beat="2.5" duration="0.25" note="C6#" pedal="t" velocity="s"/>
		<note measure="8" beat="2.75" duration="0.25" note="B5" pedal="t" velocity="s"/>
		<note measure="8" beat="3" duration="0.25" note="C6#" pedal="t" velocity="s"/>
		<note measure="8" beat="3.25" duration="0.25" note="D6" pedal="t" velocity="s"/>
		<note measure="8" beat="3.5" duration="0.25" note="E6" pedal="t" velocity="s"/>
		<note measure="8" beat="3.75" duration="0.25" note="F6#" pedal="t" velocity="s"/>
		<note measure="8" beat="4" duration="0.25" note="E6" pedal="t" velocity="s"/>
		<note measure="8" beat="4.25" duration="0.25" note="F6#" pedal="t" velocity="s"/>
		<note measure="8" beat="4.5" duration="0.25" note="G6" pedal="t" velocity="s"/>
		<note measure="8" beat="4.75" duration="0.25" note="B6" pedal="t" velocity="s"/>

		<note measure="9" beat="1" duration="0.25" note="C7#" pedal="t" velocity="s"/>
		<note measure="9" beat="1.25" duration="0.25" note="F5#" pedal="t" velocity="s"/>
		<note measure="9" beat="1.5" duration="0.25" note="F6#" pedal="t" velocity="s"/>
		<note measure="9" beat="1.75" duration="0.25" note="E6" pedal="t" velocity="s"/>
		<note measure="9" beat="2" duration="0.25" note="A5#" pedal="t" velocity="s"/>
		<note measure="9" beat="2.25" duration="0.25" note="E6" pedal="t" velocity="s"/>
		<note measure="9" beat="2.5" duration="0.25" note="C6#" pedal="t" velocity="s"/>
		<note measure="9" beat="2.75" duration="0.25" note="A5#" pedal="t" velocity="s"/>
		<note measure="9" beat="3" duration="0.25" note="G6" pedal="t" velocity="s"/>
		<note measure="9" beat="3.25" duration="0.25" note="E6" pedal="t" velocity="s"/>
		<note measure="9" beat="3.5" duration="0.25" note="C6#" pedal="t" velocity="s"/>
		<note measure="9" beat="3.75" duration="0.25" note="A5#" pedal="t" velocity="s"/>
		<note measure="9" beat="4" duration="0.25" note="E5" pedal="t" velocity="s"/>
		<note measure="9" beat="4.25" duration="0.25" note="F5#" pedal="t" velocity="s"/>
		<note measure="9" beat="4.5" duration="0.25" note="G5" pedal="t" velocity="s"/>
		<note measure="9" beat="4.75" duration="0.25" note="B5" pedal="t" velocity="s"/>

		<note measure="10" beat="1" duration="0.25" note="C6#" pedal="t" velocity="s"/>
		<note measure="10" beat="1.25" duration="0.25" note="F5#" pedal="t" velocity="s"/>
		<note measure="10" beat="1.5" duration="0.25" note="F5#" pedal="t" velocity="s"/>
		<note measure="10" beat="1.75" duration="0.25" note="C5#" pedal="t" velocity="s"/>
		<note measure="10" beat="2" duration="0.25" note="F5#" pedal="t" velocity="s"/>
		<note measure="10" beat="2.25" duration="0.25" note="F5#" pedal="t" velocity="s"/>
		<note measure="10" beat="2.5" duration="0.25" note="C5#" pedal="t" velocity="s"/>
		<note measure="10" beat="2.75" duration="0.25" note="G5" pedal="t" velocity="s"/>
		<note measure="10" beat="3" duration="0.25" note="E5" pedal="t" velocity="s"/>
		<note measure="10" beat="3.25" duration="0.25" note="C5#" pedal="t" velocity="s"/>
		<note measure="10" beat="3.5" duration="0.5" note="B4" pedal="t" velocity="s"/>
		<note measure="10" beat="4" duration="0.25" note="E5" pedal="t" velocity="s"/>
		<note measure="10" beat="4.25" duration="0.25" note="F5#" pedal="t" velocity="s"/>
		<note measure="10" beat="4.5" duration="0.25" note="G5" pedal="t" velocity="s"/>
		<note measure="10" beat="4.75" duration="0.25" note="B5" pedal="t" velocity="s"/>

		<note measure="11" beat="1" duration="0.25" note="C6#" pedal="t" velocity="s"/>
		<note measure="11" beat="1.25" duration="0.25" note="F5#" pedal="t" velocity="s"/>
		<note measure="11" beat="1.5" duration="0.25" note="F5#" pedal="t" velocity="s"/>
		<note measure="11" beat="1.75" duration="0.25" note="C5#" pedal="t" velocity="s"/>
		<note measure="11" beat="2" duration="0.25" note="F5#" pedal="t" velocity="s"/>
		<note measure="11" beat="2.25" duration="0.25" note="F5#" pedal="t" velocity="s"/>
		<note measure="11" beat="2.5" duration="0.25" note="C5#" pedal="t" velocity="s"/>
		<note measure="11" beat="2.75" duration="0.25" note="G5" pedal="t" velocity="s"/>
		<note measure="11" beat="3" duration="0.25" note="E5" pedal="t" velocity="s"/>
		<note measure="11" beat="3.25" duration="0.25" note="C5#" pedal="t" velocity="s"/>
		<note measure="11" beat="3.5" duration="0.5" note="B4" pedal="t" velocity="s"/>
		<note measure="11" beat="4" duration="0.25" note="E5" pedal="t" velocity="s"/>
		<note measure="11" beat="4.25" duration="0.25" note="F5#" pedal="t" velocity="s"/>
		<note measure="11" beat="4.5" duration="0.25" note="G5" pedal="t" velocity="s"/>
		<note measure="11" beat="4.75" duration="0.25" note="B5" pedal="t" velocity="s"/>

		<note measure="12" beat="1" duration="0.25" note="C6#" pedal="t" velocity="s"/>
		<note measure="12" beat="1.25" duration="0.25" note="F5#" pedal="t" velocity="s"/>
		<note measure="12" beat="1.5" duration="0.25" note="F5#" pedal="t" velocity="s"/>
		<note measure="12" beat="1.75" duration="0.25" note="C5#" pedal="t" velocity="s"/>
		<note measure="12" beat="2" duration="0.25" note="F5#" pedal="t" velocity="s"/>
		<note measure="12" beat="2.25" duration="0.25" note="F5#" pedal="t" velocity="s"/>
		<note measure="12" beat="2.5" duration="0.25" note="C5#" pedal="t" velocity="s"/>
		<note measure="12" beat="2.75" duration="0.25" note="G5" pedal="t" velocity="s"/>
		<note measure="12" beat="3" duration="0.25" note="E5" pedal="t" velocity="s"/>
		<note measure="12" beat="3.25" duration="0.25" note="C5#" pedal="t" velocity="s"/>
		<note measure="12" beat="3.5" duration="0.5" note="B4" pedal="t" velocity="s"/>
	</instrument>

	<instrument instrument="piano" gate="t">
		<note measure="1" beat="1" duration="1" note="F2#" pedal="t" velocity="l"/>
		<note measure="1" beat="2" duration="0.25" note="F3#" pedal="t" velocity="s"/>
		<note measure="1" beat="2.5" duration="0.25" note="F2#" pedal="t" velocity="s"/>
		<note measure="1" beat="2.75" duration="0.25" note="F3#" pedal="t" velocity="s"/>
		<note measure="1" beat="3.5" duration="0.25" note="F2#" pedal="t" velocity="s"/>
		<note measure="1" beat="4" duration="0.25" note="F2#" pedal="t" velocity="s"/>
		<note measure="1" beat="4.5" duration="0.25" note="F2#" pedal="t" velocity="s"/>

		<note measure="2" beat="1" duration="1" note="F2#" pedal="t" velocity="l"/>
		<note measure="2" beat="2" duration="0.25" note="F3#" pedal="t" velocity="s"/>
		<note measure="2" beat="2.5" duration="0.25" note="F2#" pedal="t" velocity="s"/>
		<note measure="2" beat="2.75" duration="0.25" note="F3#" pedal="t" velocity="s"/>
		<note measure="2" beat="3.5" duration="0.25" note="F2#" pedal="t" velocity="s"/>
		<note measure="2" beat="4" duration="0.25" note="F2#" pedal="t" velocity="s"/>
		<note measure="2" beat="4.5" duration="0.25" note="F2#" pedal="t" velocity="s"/>

		<note measure="3" beat="1" duration="1" note="A2#" pedal="t" velocity="l"/>
		<note measure="3" beat="2" duration="0.25" note="A3#" pedal="t" velocity="s"/>
		<note measure="3" beat="2.5" duration="0.25" note="A2#" pedal="t" velocity="s"/>
		<note measure="3" beat="2.75" duration="0.25" note="A3#" pedal="t" velocity="s"/>
		<note measure="3" beat="3.5" duration="0.25" note="A2#" pedal="t" velocity="s"/>
		<note measure="3" beat="4" duration="0.25" note="A2#" pedal="t" velocity="s"/>
		<note measure="3" beat="4.25" duration="0.25" note="A3#" pedal="t" velocity="s"/>
		<note measure="3" beat="4.5" duration="0.5" note="A2#" pedal="t" velocity="s"/>

		<note measure="4" beat="1" duration="1" note="A2" pedal="t" velocity="l"/>
		<note measure="4" beat="2" duration="0.25" note="A3" pedal="t" velocity="s"/>
		<note measure="4" beat="2.5" duration="0.25" note="A2" pedal="t" velocity="s"/>
		<note measure="4" beat="2.75" duration="0.25" note="A3" pedal="t" velocity="s"/>
		<note measure="4" beat="3.5" duration="0.25" note="A2" pedal="t" velocity="s"/>
		<note measure="4" beat="4" duration="0.25" note="A2" pedal="t" velocity="s"/>
		<note measure="4" beat="4.25" duration="0.25" note="A3" pedal="t" velocity="s"/>
		<note measure="4" beat="4.5" duration="0.5" note="A2" pedal="t" velocity="s"/>

		<note measure="5" beat="1" duration="0.25" note="G2" pedal="t" velocity="s"/>
		<note measure="5" beat="1.5" duration="0.25" note="G2" pedal="t" velocity="s"/>
		<note measure="5" beat="2" duration="0.25" note="G2" pedal="t" velocity="s"/>
		<note measure="5" beat="2.25" duration="0.25" note="G3" pedal="t" velocity="s"/>
		<note measure="5" beat="2.5" duration="0.25" note="D2" pedal="t" velocity="s"/>
		<note measure="5" beat="3" duration="0.25" note="D2" pedal="t" velocity="s"/>
		<note measure="5" beat="3.5" duration="0.25" note="D2" pedal="t" velocity="s"/>
		<note measure="5" beat="4" duration="0.5" note="D2" pedal="t" velocity="s"/>
		<note measure="5" beat="4.25" duration="0.5" note="D3" pedal="t" velocity="s"/>
		<note measure="5" beat="4.5" duration="0.5" note="D2" pedal="t" velocity="s"/>

		<note measure="6" beat="1" duration="0.25" note="D2" pedal="t" velocity="s"/>
		<note measure="6" beat="1.5" duration="0.25" note="D2" pedal="t" velocity="s"/>
		<note measure="6" beat="2" duration="0.25" note="D2" pedal="t" velocity="s"/>
		<note measure="6" beat="2.25" duration="0.25" note="D3" pedal="t" velocity="s"/>
		<note measure="6" beat="2.5" duration="0.25" note="D2" pedal="t" velocity="s"/>
		<note measure="6" beat="3" duration="0.25" note="D2" pedal="t" velocity="s"/>
		<note measure="6" beat="3.5" duration="0.25" note="D2" pedal="t" velocity="s"/>

		<note measure="7" beat="1" duration="8" note="F2#" pedal="t" velocity="l"/>

		<note measure="9" beat="1" duration="4" note="A2#" pedal="t" velocity="l"/>

		<note measure="10" beat="1" duration="4" note="A2" pedal="t" velocity="l"/>

		<note measure="11" beat="1" duration="1.5" note="G2" pedal="t" velocity="l"/>
		<note measure="11" beat="2.5" duration="6.5" note="D2" pedal="t" velocity="l"/>


	
	</instrument>
		
	<instrument instrument="piano" gate="t">
		<note measure="1" beat="1" duration="8" note="F3#" pedal="t" velocity="l"/>
		<note measure="1" beat="1" duration="8" note="C4#" pedal="t" velocity="l"/>
		<note measure="1" beat="1" duration="8" note="G4#" pedal="t" velocity="l"/>

		<note measure="3" beat="1" duration="4" note="A3#" pedal="t" velocity="l"/>
		<note measure="3" beat="1" duration="4" note="F4" pedal="t" velocity="l"/>
		<note measure="3" beat="1" duration="4" note="C5#" pedal="t" velocity="l"/>

		<note measure="4" beat="1" duration="4" note="A3" pedal="t" velocity="l"/>
		<note measure="4" beat="1" duration="4" note="E4" pedal="t" velocity="l"/>
		<note measure="4" beat="1" duration="4" note="C5#" pedal="t" velocity="l"/>

		<note measure="5" beat="1" duration="1.5" note="A4" pedal="t" velocity="l"/>
		<note measure="5" beat="1" duration="1.5" note="D4" pedal="t" velocity="l"/>
		<note measure="5" beat="1" duration="1.5" note="G3" pedal="t" velocity="l"/>
		<note measure="5" beat="2.5" duration="6.5" note="A4" pedal="t" velocity="l"/>
		<note measure="5" beat="2.5" duration="6.5" note="A3" pedal="t" velocity="l"/>
		<note measure="5" beat="2.5" duration="6.5" note="D3" pedal="t" velocity="l"/>

		<note measure="7" beat="1" duration="8" note="F3#" pedal="t" velocity="l"/>
		<note measure="7" beat="1" duration="8" note="C4#" pedal="t" velocity="l"/>
		<note measure="7" beat="1" duration="8" note="G4#" pedal="t" velocity="l"/>

		<note measure="9" beat="1" duration="4" note="A3#" pedal="t" velocity="l"/>
		<note measure="9" beat="1" duration="4" note="F4" pedal="t" velocity="l"/>
		<note measure="9" beat="1" duration="4" note="C5#" pedal="t" velocity="l"/>

		<note measure="10" beat="1" duration="4" note="A3" pedal="t" velocity="l"/>
		<note measure="10" beat="1" duration="4" note="E4" pedal="t" velocity="l"/>
		<note measure="10" beat="1" duration="4" note="C5#" pedal="t" velocity="l"/>

		<note measure="11" beat="1" duration="1.5" note="A4" pedal="t" velocity="l"/>
		<note measure="11" beat="1" duration="1.5" note="D4" pedal="t" velocity="l"/>
		<note measure="11" beat="1" duration="1.5" note="G3" pedal="t" velocity="l"/>
		<note measure="11" beat="2.5" duration="6.5" note="A4" pedal="t" velocity="l"/>
		<note measure="11" beat="2.5" duration="6.5" note="A3" pedal="t" velocity="l"/>
		<note measure="11" beat="2.5" duration="6.5" note="D3" pedal="t" velocity="l"/>
	</instrument>
</score>