<?xml version="1.0" encoding="utf-8"?>
<score bpm="110" beatspermeasure="3">
   <instrument instrument="piano" reverb="f" chorus="t" gate="t">
   <!--Instrument 1-->
	<!--Measure 1-->
    	<note measure="1" beat="1" duration="0.5" note="A4" velocity="s" pedal="t"/>
	<note measure="1" beat="1" duration="0.5" note="E4" velocity="s" pedal="t"/>
	<note measure="1" beat="1.5" duration="0.5" note="B4" velocity="s" pedal="t"/>
	<note measure="1" beat="2" duration="0.5" note="C5" velocity="s" pedal="t"/>
	<note measure="1" beat="2.5" duration="0.5" note="A4" velocity="s" pedal="t"/>
	<note measure="1" beat="3" duration="0.5" note="B4" velocity="s" pedal="t"/>
	<note measure="1" beat="3" duration="0.5" note="F4" velocity="s" pedal="t"/>
	<note measure="1" beat="3.5" duration="0.5" note="C5" velocity="s" pedal="t"/>

	<!--Measure 2-->
	<note measure="2" beat="1" duration="0.5" note="C4" velocity="s" pedal="t"/>
	<note measure="2" beat="1" duration="0.5" note="E5" velocity="s" pedal="t"/>
	<note measure="2" beat="1.5" duration="0.5" note="D5" velocity="s" pedal="t"/>
	<note measure="2" beat="2" duration="2" note="G4" velocity="s" pedal="t"/>

	<!--Measure 3-->
	<note measure="3" beat="1" duration="0.5" note="D5" velocity="s" pedal="t"/>
	<note measure="3" beat="1" duration="0.5" note="E4" velocity="s" pedal="t"/>
	<note measure="3" beat="1.5" duration="0.5" note="C5" velocity="s" pedal="t"/>
	<note measure="3" beat="2" duration="2" note="B4" velocity="s" pedal="t"/>

	<!--Measure 4-->
	<note measure="4" beat="1" duration="0.5" note="C5" velocity="s" pedal="t"/>
	<note measure="4" beat="1" duration="0.5" note="F4" velocity="s" pedal="t"/>
	<note measure="4" beat="1.5" duration="0.5" note="B4" velocity="s" pedal="t"/>
	<note measure="4" beat="2" duration="1" note="A4" velocity="s" pedal="t"/>
	<note measure="4" beat="2" duration="1" note="D4" velocity="s" pedal="t"/>
	<note measure="4" beat="3" duration="1" note="G4" velocity="s" pedal="t"/>
	<note measure="4" beat="3" duration="1" note="B3" velocity="s" pedal="t"/>

	<!--Measure 5-->
    	<note measure="5" beat="1" duration="0.5" note="A4" velocity="s" pedal="t"/>
	<note measure="5" beat="1" duration="0.5" note="E4" velocity="s" pedal="t"/>
	<note measure="5" beat="1.5" duration="0.5" note="B4" velocity="s" pedal="t"/>
	<note measure="5" beat="2" duration="0.5" note="C5" velocity="s" pedal="t"/>
	<note measure="5" beat="2.5" duration="0.5" note="A4" velocity="s" pedal="t"/>
	<note measure="5" beat="3" duration="0.5" note="B4" velocity="s" pedal="t"/>
	<note measure="5" beat="3" duration="0.5" note="F4" velocity="s" pedal="t"/>
	<note measure="5" beat="3.5" duration="0.5" note="C5" velocity="s" pedal="t"/>

	<!--Measure 6-->
	<note measure="6" beat="1" duration="0.5" note="C4" velocity="s" pedal="t"/>
	<note measure="6" beat="1" duration="0.5" note="E5" velocity="s" pedal="t"/>
	<note measure="6" beat="1.5" duration="0.5" note="D5" velocity="s" pedal="t"/>
	<note measure="6" beat="2" duration="2" note="G4" velocity="s" pedal="t"/>

	<!--Measure 7-->
	<note measure="7" beat="1" duration="0.5" note="D5" velocity="s" pedal="t"/>
	<note measure="7" beat="1" duration="0.5" note="E4" velocity="s" pedal="t"/>
	<note measure="7" beat="1.5" duration="0.5" note="C5" velocity="s" pedal="t"/>
	<note measure="7" beat="2" duration="2" note="B4" velocity="s" pedal="t"/>
	<note measure="7" beat="3" duration="1" note="G4" velocity="s" pedal="t"/>
	<note measure="7" beat="3" duration="1" note="G3" velocity="s" pedal="t"/>

	<!--Measure 8-->
	<note measure="8" beat="1" duration="3" note="A3" velocity="s" pedal="t"/>
	<note measure="8" beat="1" duration="3" note="E4" velocity="s" pedal="t"/>
	<note measure="8" beat="1" duration="3" note="A4" velocity="s" pedal="t"/>

	<!--Measure 9-->
    	<note measure="9" beat="1" duration="0.5" note="A4" velocity="s" pedal="t"/>
	<note measure="9" beat="1" duration="0.5" note="E4" velocity="s" pedal="t"/>
	<note measure="9" beat="1.5" duration="0.5" note="B4" velocity="s" pedal="t"/>
	<note measure="9" beat="2" duration="0.5" note="C5" velocity="s" pedal="t"/>
	<note measure="9" beat="2.5" duration="0.5" note="A4" velocity="s" pedal="t"/>
	<note measure="9" beat="3" duration="0.5" note="B4" velocity="s" pedal="t"/>
	<note measure="9" beat="3" duration="0.5" note="F4" velocity="s" pedal="t"/>
	<note measure="9" beat="3.5" duration="0.5" note="C5" velocity="s" pedal="t"/>

	<!--Measure 10-->
	<note measure="10" beat="1" duration="0.5" note="C4" velocity="s" pedal="t"/>
	<note measure="10" beat="1" duration="0.5" note="E5" velocity="s" pedal="t"/>
	<note measure="10" beat="1.5" duration="0.5" note="D5" velocity="s" pedal="t"/>
	<note measure="10" beat="2" duration="2" note="G4" velocity="s" pedal="t"/>

	<!--Measure 11-->
	<note measure="11" beat="1" duration="0.5" note="D5" velocity="s" pedal="t"/>
	<note measure="11" beat="1" duration="0.5" note="E4" velocity="s" pedal="t"/>
	<note measure="11" beat="1.5" duration="0.5" note="C5" velocity="s" pedal="t"/>
	<note measure="11" beat="2" duration="2" note="B4" velocity="s" pedal="t"/>

	<!--Measure 12-->
	<note measure="12" beat="1" duration="0.5" note="C5" velocity="s" pedal="t"/>
	<note measure="12" beat="1" duration="0.5" note="F4" velocity="s" pedal="t"/>
	<note measure="12" beat="1.5" duration="0.5" note="B4" velocity="s" pedal="t"/>
	<note measure="12" beat="2" duration="1" note="A4" velocity="s" pedal="t"/>
	<note measure="12" beat="2" duration="1" note="D4" velocity="s" pedal="t"/>
	<note measure="12" beat="3" duration="1" note="G4" velocity="s" pedal="t"/>
	<note measure="12" beat="3" duration="1" note="B3" velocity="s" pedal="t"/>

	<!--Measure 13-->
    	<note measure="13" beat="1" duration="0.5" note="A4" velocity="s" pedal="t"/>
	<note measure="13" beat="1" duration="0.5" note="E4" velocity="s" pedal="t"/>
	<note measure="13" beat="1.5" duration="0.5" note="B4" velocity="s" pedal="t"/>
	<note measure="13" beat="2" duration="0.5" note="C5" velocity="s" pedal="t"/>
	<note measure="13" beat="2.5" duration="0.5" note="A4" velocity="s" pedal="t"/>
	<note measure="13" beat="3" duration="0.5" note="B4" velocity="s" pedal="t"/>
	<note measure="13" beat="3" duration="0.5" note="F4" velocity="s" pedal="t"/>
	<note measure="13" beat="3.5" duration="0.5" note="C5" velocity="s" pedal="t"/>

	<!--Measure 14-->
	<note measure="14" beat="1" duration="0.5" note="C4" velocity="s" pedal="t"/>
	<note measure="14" beat="1" duration="0.5" note="E5" velocity="s" pedal="t"/>
	<note measure="14" beat="1.5" duration="0.5" note="D5" velocity="s" pedal="t"/>
	<note measure="14" beat="2" duration="2" note="G4" velocity="s" pedal="t"/>

	<!--Measure 15-->
	<note measure="15" beat="1" duration="0.5" note="D5" velocity="s" pedal="t"/>
	<note measure="15" beat="1" duration="0.5" note="E4" velocity="s" pedal="t"/>
	<note measure="15" beat="1.5" duration="0.5" note="C5" velocity="s" pedal="t"/>
	<note measure="15" beat="2" duration="2" note="B4" velocity="s" pedal="t"/>
	<note measure="15" beat="3" duration="1" note="G4" velocity="s" pedal="t"/>
	<note measure="15" beat="3" duration="1" note="G3" velocity="s" pedal="t"/>

	<!--Measure 16-->
	<note measure="16" beat="1" duration="3" note="A3" velocity="s" pedal="t"/>
	<note measure="16" beat="1" duration="3" note="E4" velocity="s" pedal="t"/>
	<note measure="16" beat="1" duration="3" note="A4" velocity="s" pedal="t"/>

	<!--Measure 17-->
	<note measure="17" beat="1" duration="0.5" note="A5" velocity="s" pedal="f"/>
	<note measure="17" beat="1" duration="0.5" note="E5" velocity="s" pedal="f"/>
	<note measure="17" beat="1.5" duration="0.5" note="A5" velocity="s" pedal="f"/>
	<note measure="17" beat="1.5" duration="0.5" note="E5" velocity="s" pedal="f"/>
	<note measure="17" beat="2" duration="0.5" note="E5" velocity="s" pedal="f"/>
	<note measure="17" beat="2" duration="0.5" note="C5#" velocity="s" pedal="f"/>
	<note measure="17" beat="2.5" duration="0.5" note="E5" velocity="s" pedal="f"/>
	<note measure="17" beat="2.5" duration="0.5" note="C5#" velocity="s" pedal="f"/>
	<note measure="17" beat="3" duration="0.5" note="C5#" velocity="s" pedal="f"/>
	<note measure="17" beat="3" duration="0.5" note="A4" velocity="s" pedal="f"/>
	<note measure="17" beat="3.5" duration="0.5" note="C5#" velocity="s" pedal="f"/>
	<note measure="17" beat="3.5" duration="0.5" note="A4" velocity="s" pedal="f"/>

	<!--Measure 18-->
	<note measure="18" beat="1" duration="0.5" note="A5" velocity="s" pedal="f"/>
	<note measure="18" beat="1" duration="0.5" note="E5" velocity="s" pedal="f"/>
	<note measure="18" beat="1.5" duration="0.5" note="A5" velocity="s" pedal="f"/>
	<note measure="18" beat="1.5" duration="0.5" note="E5" velocity="s" pedal="f"/>
	<note measure="18" beat="2" duration="0.5" note="E5" velocity="s" pedal="f"/>
	<note measure="18" beat="2" duration="0.5" note="C5#" velocity="s" pedal="f"/>
	<note measure="18" beat="2.5" duration="0.5" note="E5" velocity="s" pedal="f"/>
	<note measure="18" beat="2.5" duration="0.5" note="C5#" velocity="s" pedal="f"/>
	<note measure="18" beat="3" duration="0.5" note="C5#" velocity="s" pedal="f"/>
	<note measure="18" beat="3" duration="0.5" note="A4" velocity="s" pedal="f"/>
	<note measure="18" beat="3.5" duration="0.5" note="C5#" velocity="s" pedal="f"/>
	<note measure="18" beat="3.5" duration="0.5" note="A4" velocity="s" pedal="f"/>

	<!--Measure 19-->
	<note measure="19" beat="1" duration="0.5" note="E5" velocity="s" pedal="f"/>
	<note measure="19" beat="1" duration="0.5" note="B4" velocity="s" pedal="f"/>
	<note measure="19" beat="1.5" duration="0.5" note="E5" velocity="s" pedal="f"/>
	<note measure="19" beat="1.5" duration="0.5" note="B4" velocity="s" pedal="f"/>
	<note measure="19" beat="2" duration="0.5" note="B4" velocity="s" pedal="f"/>
	<note measure="19" beat="2" duration="0.5" note="G4" velocity="s" pedal="f"/>
	<note measure="19" beat="2.5" duration="0.5" note="B4" velocity="s" pedal="f"/>
	<note measure="19" beat="2.5" duration="0.5" note="G4" velocity="s" pedal="f"/>
	<note measure="19" beat="3" duration="0.5" note="G4" velocity="s" pedal="f"/>
	<note measure="19" beat="3" duration="0.5" note="E4" velocity="s" pedal="f"/>
	<note measure="19" beat="3.5" duration="0.5" note="G4" velocity="s" pedal="f"/>
	<note measure="19" beat="3.5" duration="0.5" note="E4" velocity="s" pedal="f"/>

	<!--Measure 20-->
	<note measure="20" beat="1" duration="0.5" note="E5" velocity="s" pedal="f"/>
	<note measure="20" beat="1" duration="0.5" note="B4" velocity="s" pedal="f"/>
	<note measure="20" beat="1.5" duration="0.5" note="E5" velocity="s" pedal="f"/>
	<note measure="20" beat="1.5" duration="0.5" note="B4" velocity="s" pedal="f"/>
	<note measure="20" beat="2" duration="0.5" note="B4" velocity="s" pedal="f"/>
	<note measure="20" beat="2" duration="0.5" note="G4" velocity="s" pedal="f"/>
	<note measure="20" beat="2.5" duration="0.5" note="B4" velocity="s" pedal="f"/>
	<note measure="20" beat="2.5" duration="0.5" note="G4" velocity="s" pedal="f"/>
	<note measure="20" beat="3" duration="0.5" note="G4" velocity="s" pedal="f"/>
	<note measure="20" beat="3" duration="0.5" note="E4" velocity="s" pedal="f"/>
	<note measure="20" beat="3.5" duration="0.5" note="G4" velocity="s" pedal="f"/>
	<note measure="20" beat="3.5" duration="0.5" note="E4" velocity="s" pedal="f"/>

	<!--Measure 21-->
	<note measure="21" beat="1" duration="0.5" note="A5" velocity="s" pedal="f"/>
	<note measure="21" beat="1" duration="0.5" note="E5" velocity="s" pedal="f"/>
	<note measure="21" beat="1.5" duration="0.5" note="A5" velocity="s" pedal="f"/>
	<note measure="21" beat="1.5" duration="0.5" note="E5" velocity="s" pedal="f"/>
	<note measure="21" beat="2" duration="0.5" note="E5" velocity="s" pedal="f"/>
	<note measure="21" beat="2" duration="0.5" note="C5#" velocity="s" pedal="f"/>
	<note measure="21" beat="2.5" duration="0.5" note="E5" velocity="s" pedal="f"/>
	<note measure="21" beat="2.5" duration="0.5" note="C5#" velocity="s" pedal="f"/>
	<note measure="21" beat="3" duration="0.5" note="C5#" velocity="s" pedal="f"/>
	<note measure="21" beat="3" duration="0.5" note="A4" velocity="s" pedal="f"/>
	<note measure="21" beat="3.5" duration="0.5" note="C5#" velocity="s" pedal="f"/>
	<note measure="21" beat="3.5" duration="0.5" note="A4" velocity="s" pedal="f"/>

	<!--Measure 22-->
	<note measure="22" beat="1" duration="0.5" note="A5" velocity="s" pedal="f"/>
	<note measure="22" beat="1" duration="0.5" note="E5" velocity="s" pedal="f"/>
	<note measure="22" beat="1.5" duration="0.5" note="A5" velocity="s" pedal="f"/>
	<note measure="22" beat="1.5" duration="0.5" note="E5" velocity="s" pedal="f"/>
	<note measure="22" beat="2" duration="0.5" note="E5" velocity="s" pedal="f"/>
	<note measure="22" beat="2" duration="0.5" note="C5#" velocity="s" pedal="f"/>
	<note measure="22" beat="2.5" duration="0.5" note="E5" velocity="s" pedal="f"/>
	<note measure="22" beat="2.5" duration="0.5" note="C5#" velocity="s" pedal="f"/>
	<note measure="22" beat="3" duration="0.5" note="C5#" velocity="s" pedal="f"/>
	<note measure="22" beat="3" duration="0.5" note="A4" velocity="s" pedal="f"/>
	<note measure="22" beat="3.5" duration="0.5" note="C5#" velocity="s" pedal="f"/>
	<note measure="22" beat="3.5" duration="0.5" note="A4" velocity="s" pedal="f"/>

	<!--Measure 23-->
	<note measure="23" beat="1" duration="0.5" note="E5" velocity="s" pedal="f"/>
	<note measure="23" beat="1" duration="0.5" note="B4" velocity="s" pedal="f"/>
	<note measure="23" beat="1.5" duration="0.5" note="E5" velocity="s" pedal="f"/>
	<note measure="23" beat="1.5" duration="0.5" note="B4" velocity="s" pedal="f"/>
	<note measure="23" beat="2" duration="0.5" note="B4" velocity="s" pedal="f"/>
	<note measure="23" beat="2" duration="0.5" note="G4" velocity="s" pedal="f"/>
	<note measure="23" beat="2.5" duration="0.5" note="B4" velocity="s" pedal="f"/>
	<note measure="23" beat="2.5" duration="0.5" note="G4" velocity="s" pedal="f"/>
	<note measure="23" beat="3" duration="0.5" note="G4" velocity="s" pedal="f"/>
	<note measure="23" beat="3" duration="0.5" note="E4" velocity="s" pedal="f"/>
	<note measure="23" beat="3.5" duration="0.5" note="G4" velocity="s" pedal="f"/>
	<note measure="23" beat="3.5" duration="0.5" note="E4" velocity="s" pedal="f"/>

	<!--Measure 24-->
	<note measure="24" beat="1" duration="0.5" note="E5" velocity="s" pedal="f"/>
	<note measure="24" beat="1" duration="0.5" note="B4" velocity="s" pedal="f"/>
	<note measure="24" beat="1.5" duration="0.5" note="E5" velocity="s" pedal="f"/>
	<note measure="24" beat="1.5" duration="0.5" note="B4" velocity="s" pedal="f"/>
	<note measure="24" beat="2" duration="0.5" note="B4" velocity="s" pedal="f"/>
	<note measure="24" beat="2" duration="0.5" note="G4" velocity="s" pedal="f"/>
	<note measure="24" beat="2.5" duration="0.5" note="B4" velocity="s" pedal="f"/>
	<note measure="24" beat="2.5" duration="0.5" note="G4" velocity="s" pedal="f"/>
	<note measure="24" beat="3" duration="0.5" note="G4" velocity="s" pedal="f"/>
	<note measure="24" beat="3" duration="0.5" note="E4" velocity="s" pedal="f"/>
	<note measure="24" beat="3.5" duration="0.5" note="G4" velocity="s" pedal="f"/>
	<note measure="24" beat="3.5" duration="0.5" note="E4" velocity="s" pedal="f"/>

	<!--Measure 25-->
    	<note measure="25" beat="1" duration="0.5" note="A4" velocity="s" pedal="t"/>
	<note measure="25" beat="1" duration="0.5" note="E4" velocity="s" pedal="t"/>
	<note measure="25" beat="1.5" duration="0.5" note="B4" velocity="s" pedal="t"/>
	<note measure="25" beat="2" duration="0.5" note="C5" velocity="s" pedal="t"/>
	<note measure="25" beat="2.5" duration="0.5" note="A4" velocity="s" pedal="t"/>
	<note measure="25" beat="3" duration="0.5" note="B4" velocity="s" pedal="t"/>
	<note measure="25" beat="3" duration="0.5" note="F4" velocity="s" pedal="t"/>
	<note measure="25" beat="3.5" duration="0.5" note="C5" velocity="s" pedal="t"/>

	<!--Measure 26-->
	<note measure="26" beat="1" duration="0.5" note="C4" velocity="s" pedal="t"/>
	<note measure="26" beat="1" duration="0.5" note="E5" velocity="s" pedal="t"/>
	<note measure="26" beat="1.5" duration="0.5" note="D5" velocity="s" pedal="t"/>
	<note measure="26" beat="2" duration="2" note="G4" velocity="s" pedal="t"/>

	<!--Measure 27-->
	<note measure="27" beat="1" duration="0.5" note="D5" velocity="s" pedal="t"/>
	<note measure="27" beat="1" duration="0.5" note="E4" velocity="s" pedal="t"/>
	<note measure="27" beat="1.5" duration="0.5" note="C5" velocity="s" pedal="t"/>
	<note measure="27" beat="2" duration="2" note="B4" velocity="s" pedal="t"/>

	<!--Measure 28-->
	<note measure="28" beat="1" duration="0.5" note="C5" velocity="s" pedal="t"/>
	<note measure="28" beat="1" duration="0.5" note="F4" velocity="s" pedal="t"/>
	<note measure="28" beat="1.5" duration="0.5" note="B4" velocity="s" pedal="t"/>
	<note measure="28" beat="2" duration="1" note="A4" velocity="s" pedal="t"/>
	<note measure="28" beat="2" duration="1" note="D4" velocity="s" pedal="t"/>
	<note measure="28" beat="3" duration="1" note="G4" velocity="s" pedal="t"/>
	<note measure="28" beat="3" duration="1" note="B3" velocity="s" pedal="t"/>

	<!--Measure 29-->
    	<note measure="29" beat="1" duration="0.5" note="A4" velocity="s" pedal="t"/>
	<note measure="29" beat="1" duration="0.5" note="E4" velocity="s" pedal="t"/>
	<note measure="29" beat="1.5" duration="0.5" note="B4" velocity="s" pedal="t"/>
	<note measure="29" beat="2" duration="0.5" note="C5" velocity="s" pedal="t"/>
	<note measure="29" beat="2.5" duration="0.5" note="A4" velocity="s" pedal="t"/>
	<note measure="29" beat="3" duration="0.5" note="B4" velocity="s" pedal="t"/>
	<note measure="29" beat="3" duration="0.5" note="F4" velocity="s" pedal="t"/>
	<note measure="29" beat="3.5" duration="0.5" note="C5" velocity="s" pedal="t"/>

	<!--Measure 30-->
	<note measure="30" beat="1" duration="0.5" note="C4" velocity="s" pedal="t"/>
	<note measure="30" beat="1" duration="0.5" note="E5" velocity="s" pedal="t"/>
	<note measure="30" beat="1.5" duration="0.5" note="D5" velocity="s" pedal="t"/>
	<note measure="30" beat="2" duration="2" note="G4" velocity="s" pedal="t"/>

	<!--Measure 31-->
	<note measure="31" beat="1" duration="0.5" note="D5" velocity="s" pedal="t"/>
	<note measure="31" beat="1" duration="0.5" note="E4" velocity="s" pedal="t"/>
	<note measure="31" beat="1.5" duration="0.5" note="C5" velocity="s" pedal="t"/>
	<note measure="31" beat="2" duration="2" note="B4" velocity="s" pedal="t"/>
	<note measure="31" beat="3" duration="1" note="G4" velocity="s" pedal="t"/>
	<note measure="31" beat="3" duration="1" note="G3" velocity="s" pedal="t"/>

	<!--Measure 32-->
	<note measure="32" beat="1" duration="3" note="A3" velocity="s" pedal="t"/>
	<note measure="32" beat="1" duration="3" note="E4" velocity="s" pedal="t"/>
	<note measure="32" beat="1" duration="3" note="A4" velocity="s" pedal="t"/>

	<!--Measure 33-->
    	<note measure="33" beat="1" duration="0.5" note="A4" velocity="s" pedal="t"/>
	<note measure="33" beat="1" duration="0.5" note="E4" velocity="s" pedal="t"/>
	<note measure="33" beat="1.5" duration="0.5" note="B4" velocity="s" pedal="t"/>
	<note measure="33" beat="2" duration="0.5" note="C5" velocity="s" pedal="t"/>
	<note measure="33" beat="2.5" duration="0.5" note="A4" velocity="s" pedal="t"/>
	<note measure="33" beat="3" duration="0.5" note="B4" velocity="s" pedal="t"/>
	<note measure="33" beat="3" duration="0.5" note="F4" velocity="s" pedal="t"/>
	<note measure="33" beat="3.5" duration="0.5" note="C5" velocity="s" pedal="t"/>

	<!--Measure 34-->
	<note measure="34" beat="1" duration="0.5" note="C4" velocity="s" pedal="t"/>
	<note measure="34" beat="1" duration="0.5" note="E5" velocity="s" pedal="t"/>
	<note measure="34" beat="1.5" duration="0.5" note="D5" velocity="s" pedal="t"/>
	<note measure="34" beat="2" duration="2" note="G4" velocity="s" pedal="t"/>

	<!--Measure 35-->
	<note measure="35" beat="1" duration="0.5" note="D5" velocity="s" pedal="t"/>
	<note measure="35" beat="1" duration="0.5" note="E4" velocity="s" pedal="t"/>
	<note measure="35" beat="1.5" duration="0.5" note="C5" velocity="s" pedal="t"/>
	<note measure="35" beat="2" duration="2" note="B4" velocity="s" pedal="t"/>

	<!--Measure 36-->
	<note measure="36" beat="1" duration="0.5" note="C5" velocity="s" pedal="t"/>
	<note measure="36" beat="1" duration="0.5" note="F4" velocity="s" pedal="t"/>
	<note measure="36" beat="1.5" duration="0.5" note="B4" velocity="s" pedal="t"/>
	<note measure="36" beat="2" duration="1" note="A4" velocity="s" pedal="t"/>
	<note measure="36" beat="2" duration="1" note="D4" velocity="s" pedal="t"/>
	<note measure="36" beat="3" duration="1" note="G4" velocity="s" pedal="t"/>
	<note measure="36" beat="3" duration="1" note="B3" velocity="s" pedal="t"/>

	<!--Measure 37-->
    	<note measure="37" beat="1" duration="0.5" note="A4" velocity="s" pedal="t"/>
	<note measure="37" beat="1" duration="0.5" note="E4" velocity="s" pedal="t"/>
	<note measure="37" beat="1.5" duration="0.5" note="B4" velocity="s" pedal="t"/>
	<note measure="37" beat="2" duration="0.5" note="C5" velocity="s" pedal="t"/>
	<note measure="37" beat="2.5" duration="0.5" note="A4" velocity="s" pedal="t"/>
	<note measure="37" beat="3" duration="0.5" note="B4" velocity="s" pedal="t"/>
	<note measure="37" beat="3" duration="0.5" note="F4" velocity="s" pedal="t"/>
	<note measure="37" beat="3.5" duration="0.5" note="C5" velocity="s" pedal="t"/>

	<!--Measure 38-->
	<note measure="38" beat="1" duration="0.5" note="C4" velocity="s" pedal="t"/>
	<note measure="38" beat="1" duration="0.5" note="E5" velocity="s" pedal="t"/>
	<note measure="38" beat="1.5" duration="0.5" note="D5" velocity="s" pedal="t"/>
	<note measure="38" beat="2" duration="2" note="G4" velocity="s" pedal="t"/>

	<!--Measure 39-->
	<note measure="39" beat="1" duration="0.5" note="D5" velocity="s" pedal="t"/>
	<note measure="39" beat="1" duration="0.5" note="E4" velocity="s" pedal="t"/>
	<note measure="39" beat="1.5" duration="0.5" note="C5" velocity="s" pedal="t"/>
	<note measure="39" beat="2" duration="2" note="B4" velocity="s" pedal="t"/>
	<note measure="39" beat="3" duration="1" note="G4" velocity="s" pedal="t"/>
	<note measure="39" beat="3" duration="1" note="G3" velocity="s" pedal="t"/>

	<!--Measure 40-->
	<note measure="40" beat="1" duration="3" note="A3" velocity="s" pedal="t"/>
	<note measure="40" beat="1" duration="3" note="E4" velocity="s" pedal="t"/>
	<note measure="40" beat="1" duration="3" note="A4" velocity="s" pedal="t"/>
   </instrument>

   <instrument instrument="piano" reverb="t" gate="t">
   <!--Instrument 2-->
	<!-- Measure 9-->
	<note measure="9" beat="1" duration="1" note="A5" velocity="l" pedal="f"/>
	<note measure="9" beat="2.5" duration="3" note="A5" velocity="l" pedal="t"/>
	<note measure="9" beat="3" duration="1" note="A5" velocity="l" pedal="t"/>

	<!-- Measure 10-->
	<note measure="10" beat="1" duration="1" note="A5" velocity="l" pedal="t"/>
	<note measure="10" beat="2" duration="1.5" note="G5" velocity="l" pedal="t"/>
	<note measure="10" beat="3.5" duration="0.5" note="E5" velocity="l" pedal="t"/>

	<!-- Measure 11-->
	<note measure="11" beat="1" duration="2" note="D5" velocity="l" pedal="t"/>
	<note measure="11" beat="3" duration="0.5" note="C5" velocity="l" pedal="t"/>
	<note measure="11" beat="3.5" duration="0.5" note="D5" velocity="l" pedal="t"/>

	<!-- Measure 12-->
	<note measure="12" beat="1" duration="2" note="E5" velocity="l" pedal="t"/>
	<note measure="12" beat="2.5" duration="0.5" note="D5" velocity="l" pedal="t"/>
	<note measure="12" beat="3" duration="0.5" note="C5" velocity="l" pedal="t"/>
	<note measure="12" beat="3.5" duration="0.5" note="B4" velocity="l" pedal="t"/>

	<!-- Measure 13-->
	<note measure="13" beat="1" duration="1" note="A4" velocity="l" pedal="t"/>
	<note measure="13" beat="2.5" duration="0.5" note="A5" velocity="l" pedal="t"/>
	<note measure="13" beat="3" duration="1" note="A5" velocity="l" pedal="t"/>

	<!-- Measure 14-->
	<note measure="14" beat="1" duration="1" note="A5" velocity="l" pedal="t"/>
	<note measure="14" beat="2" duration="2" note="E5" velocity="l" pedal="t"/>

	<!-- Measure 15-->
	<note measure="15" beat="1" duration="0.5" note="G5" velocity="l" pedal="t"/>
	<note measure="15" beat="1.5" duration="0.5" note="F5" velocity="l" pedal="t"/>
	<note measure="15" beat="2" duration="1" note="E5" velocity="l" pedal="t"/>
	<note measure="15" beat="3" duration="1" note="C5" velocity="l" pedal="t"/>

	<!-- Measure 16-->
	<note measure="16" beat="1" duration="2" note="A4" velocity="l" pedal="t"/>

	<!-- Measure 33-->
	<note measure="33" beat="1" duration="1" note="A5" velocity="l" pedal="f"/>
	<note measure="33" beat="2.5" duration="3" note="A5" velocity="l" pedal="t"/>
	<note measure="33" beat="3" duration="1" note="A5" velocity="l" pedal="t"/>

	<!-- Measure 34-->
	<note measure="34" beat="1" duration="1" note="A5" velocity="l" pedal="t"/>
	<note measure="34" beat="2" duration="1.5" note="G5" velocity="l" pedal="t"/>
	<note measure="34" beat="3.5" duration="0.5" note="E5" velocity="l" pedal="t"/>

	<!-- Measure 35-->
	<note measure="35" beat="1" duration="2" note="D5" velocity="l" pedal="t"/>
	<note measure="35" beat="3" duration="0.5" note="C5" velocity="l" pedal="t"/>
	<note measure="35" beat="3.5" duration="0.5" note="D5" velocity="l" pedal="t"/>

	<!-- Measure 36-->
	<note measure="36" beat="1" duration="2" note="E5" velocity="l" pedal="t"/>
	<note measure="36" beat="2.5" duration="0.5" note="D5" velocity="l" pedal="t"/>
	<note measure="36" beat="3" duration="0.5" note="C5" velocity="l" pedal="t"/>
	<note measure="36" beat="3.5" duration="0.5" note="B4" velocity="l" pedal="t"/>

	<!-- Measure 37-->
	<note measure="37" beat="1" duration="1" note="A4" velocity="l" pedal="t"/>
	<note measure="37" beat="2.5" duration="0.5" note="A5" velocity="l" pedal="t"/>
	<note measure="37" beat="3" duration="1" note="A5" velocity="l" pedal="t"/>

	<!-- Measure 38-->
	<note measure="38" beat="1" duration="1" note="A5" velocity="l" pedal="t"/>
	<note measure="38" beat="2" duration="2" note="E5" velocity="l" pedal="t"/>

	<!-- Measure 39-->
	<note measure="39" beat="1" duration="0.5" note="G5" velocity="l" pedal="t"/>
	<note measure="39" beat="1.5" duration="0.5" note="F5" velocity="l" pedal="t"/>
	<note measure="39" beat="2" duration="1" note="E5" velocity="l" pedal="t"/>
	<note measure="39" beat="3" duration="1" note="C5" velocity="l" pedal="t"/>

	<!-- Measure -->
	<note measure="40" beat="1" duration="2" note="A4" velocity="l" pedal="t"/>

	

   </instrument>
</score>